<svg version="1.2" xmlns="http://www.w3.org/2000/svg" viewBox="0 0 955 138" width="955" height="138">
	<style>
		.s0 { fill: #4263eb } 
	</style>
	<path id="AUDME" class="s0" aria-label="AUDME"  d="m96.1 35.3c0.6-1 1.3-1.4 2.4-1.4h2.2c1.4 0 2.1 0.4 2.7 1.4l21.3 42.7c7.9 15.8 10.5 19.9 13.6 25.3l-0.5 1.3c-6.4-0.5-13.1-0.7-29.1-0.7h-37.9v3.7l11.2 29.4h115.8v-1.5l-67.3-129.5c-1.8-3.3-3.2-4.4-7.4-4.4h-46.7c-4.3 0-5.4 1.1-7.1 4.4l-67.9 129.5v1.5h44.3zm101.7 48c0 33.7 14.9 53.7 55.1 53.7h57.8c40.6 0 55.3-20 55.3-53.7v-81.7h-38.4v79.1c0 15.6-5.9 21.2-20.2 21.2h-51.2c-14.1 0-20.1-5.6-20.1-20.8v-79.5h-38.3zm183.7 53.8h38.4v-31.6h1.5l12.2 31.6h54.7c40.4 0 55.3-21 55.3-53.8v-27.9c0-32.7-14.9-53.7-55.3-53.7h-101.5c-3.6 0-5.3 1.8-5.3 5.6zm38.4-98.8c0-1.5 1.1-2.8 2.8-2.8h62.1c14.7 0 20.3 4.8 20.3 21.8v22.6c0 16.2-5.8 22-20.3 22h-64.9zm360.6 98.8v-129.9c0-3.7-1.6-5.5-5.2-5.5h-60.4c-4.3 0-6.5 1.8-7.7 5l-33.4 96.7c-0.2 0.7-0.6 1.1-1.5 1.1h-3.4c-1.1 0-1.7-0.4-1.8-1.1l-33.3-96.7c-1.1-3.2-3.6-5-7.8-5h-61.2c-3.6 0-5.3 1.8-5.3 5.5v129.9h35.9v-101.8c0-1.8 1.2-3 3-3h1.9c1.8 0 3 1 3.5 2.5l36.8 98c1.4 3.3 3.2 4.3 7.3 4.3h44.1c3.9 0 5.9-1 7.2-4.3l37.1-98c0.5-1.5 1.6-2.5 3.3-2.5h2.1c1.8 0 2.7 1.2 2.7 3v101.8zm65.6-54.5h53v-27.6h-63.2v-16.9c0-1.3 0.5-2.6 2.4-2.6h76.8c1.1 0 1.9 0.6 1.9 2.1v18h1.5l35.5-13.2v-35.2c0-3.7-1.9-5.5-5.6-5.5h-145.4c-3.8 0-5.4 1.8-5.4 5.5v124.3c0 3.7 1.6 5.6 5.4 5.6h149.7v-35.2h-114.2c-2.1 0-2.6-0.9-2.6-2.6v-40.5h1.3z"/>
</svg>